<svg width="182" height="41" viewBox="0 0 182 41" fill="none" xmlns="http://www.w3.org/2000/svg">
<path d="M20.2059 23.5083C20.2639 24.1563 20.1723 24.8089 19.9383 25.416C19.7043 26.023 19.3341 26.5682 18.8561 27.0096C14.532 31.0362 9.50456 34.2335 4.02435 36.4422C3.52328 36.6416 3.00034 36.781 2.46646 36.8573C2.28774 36.8953 2.10265 36.8914 1.92564 36.8461C1.74864 36.8008 1.58449 36.7152 1.44602 36.596C1.30755 36.4768 1.19849 36.3272 1.12735 36.1589C1.05622 35.9906 1.02493 35.8081 1.03594 35.6257C1.054 35.3727 1.10641 35.1232 1.19172 34.8843C2.63703 30.7451 7.58361 21.7583 9.68961 18.05C12.3221 13.415 19.2416 2.24598 20.2878 0.992851C20.3399 0.926304 20.4128 0.879154 20.4948 0.858949C20.5769 0.838745 20.6634 0.846654 20.7404 0.881411C20.911 0.971246 21.044 1.07473 20.8734 1.68992C19.9683 5.0047 18.6492 12.2142 20.0137 22.0562C20.0877 22.5747 20.1536 23.0341 20.1911 23.4719" fill="#00ADEE"/>
<path d="M21.8741 28.24C22.4066 27.8664 23.0177 27.62 23.6604 27.5199C24.3032 27.4197 24.9603 27.4685 25.5812 27.6623C31.2272 29.3868 36.5072 32.1368 41.1567 35.7747C41.5797 36.109 41.9595 36.4922 42.2904 36.9175C42.4128 37.053 42.5022 37.2149 42.5517 37.3906C42.6012 37.5663 42.6095 37.7511 42.5758 37.9305C42.5421 38.11 42.4674 38.2792 42.3576 38.425C42.2477 38.5708 42.1056 38.6892 41.9424 38.7711C41.7077 38.883 41.4579 38.9603 41.201 39.0008C36.8912 39.8173 26.6342 40.0322 22.3699 40.0617C17.039 40.0617 3.91177 39.691 2.34706 39.3942C2.26368 39.384 2.18642 39.3452 2.12839 39.2845C2.07035 39.2237 2.03512 39.1448 2.02866 39.0611C2.02866 38.8677 2.02866 38.6972 2.65863 38.5346C5.98137 37.6658 12.8782 35.197 20.7245 29.1008C21.1327 28.7824 21.4659 28.4924 21.8661 28.24" fill="#00ADEE"/>
<path d="M25.1297 24.4214C24.5411 24.1479 24.023 23.7429 23.6155 23.2376C23.208 22.7323 22.9219 22.1402 22.7793 21.5069C21.4582 15.7528 21.2069 9.80473 22.0378 3.95966C22.1141 3.42578 22.2535 2.90284 22.4529 2.40177C22.5094 2.22832 22.6052 2.07025 22.7328 1.93986C22.8604 1.80946 23.0164 1.71026 23.1886 1.64997C23.3608 1.58968 23.5445 1.56992 23.7256 1.59223C23.9067 1.61454 24.0801 1.67832 24.2325 1.77861C24.4395 1.92189 24.6283 2.08905 24.7966 2.27555C27.6508 5.60624 32.9544 14.3793 35.1196 18.05C37.8191 22.6555 44.0189 34.2327 44.5681 35.7451C44.6021 35.8225 44.6081 35.9093 44.5851 35.9907C44.5621 36.072 44.5114 36.1428 44.4419 36.1909C44.2781 36.3023 44.1155 36.3615 43.7005 35.9089C41.2829 33.4686 35.6984 28.7301 26.4954 24.9775C26.0122 24.7842 25.5823 24.6136 25.1741 24.4203" fill="#00ADEE"/>
<path d="M19.8261 22.6623C20.0115 24.5386 20.107 25.5165 18.5798 27.1119C15.659 29.8495 12.4227 32.2297 8.93908 34.202C7.0917 35.2894 5.1626 36.2315 3.16921 37.0199C1.86376 37.4872 0.773242 37.6874 0.201258 36.7458C0.0692746 36.489 0.000427246 36.2044 0.000427246 35.9157C0.000427246 35.627 0.0692746 35.3424 0.201258 35.0856C1.61132 31.258 5.69026 24.1087 8.36027 19.4589L9.19835 17.975C13.2841 10.9292 18.6981 2.30512 19.759 0.917799C19.9148 0.717661 20.1968 0.479998 20.4561 0.628964C20.5387 0.690952 20.6006 0.776479 20.6337 0.874304C20.6667 0.972129 20.6695 1.07767 20.6414 1.17707C20.6414 1.21459 20.5675 1.46704 20.5448 1.5637C18.7947 8.68222 18.9801 15.6529 19.8034 22.6248" fill="#00ADEE"/>
<path d="M25.7972 24.8581C24.0767 24.0735 23.1795 23.6641 22.5564 21.5433C21.6411 17.6551 21.1929 13.6716 21.2214 9.67722C21.2066 7.5337 21.3555 5.39019 21.6671 3.26941C21.9116 1.90484 22.2903 0.858665 23.3797 0.858665C23.6669 0.87524 23.9462 0.959236 24.1949 1.10385C24.4437 1.24847 24.6548 1.44963 24.8113 1.69106C27.4222 4.83526 31.5751 11.9333 34.2746 16.524C34.5567 16.9982 34.8375 17.4883 35.1195 18.0068C39.1837 25.0673 43.9449 34.0701 44.6056 35.6871C44.7023 35.9168 44.7682 36.2807 44.509 36.4285C44.4129 36.4682 44.3071 36.4781 44.2054 36.457C44.1036 36.4359 44.0105 36.3848 43.9381 36.3103L43.6561 36.0431C38.3684 30.9555 32.2278 27.6327 25.7972 24.8581Z" fill="#00ADEE"/>
<path d="M20.9098 28.9223C22.4449 27.8249 23.2455 27.2541 25.397 27.7737C29.2272 28.9323 32.9048 30.5457 36.3511 32.5793C38.2156 33.6366 39.9956 34.8365 41.6752 36.1681C42.7362 37.0585 43.4548 37.9114 42.9067 38.8529C42.7493 39.0946 42.5366 39.2952 42.2863 39.4384C42.036 39.5816 41.7552 39.6631 41.4671 39.6762C37.4484 40.3653 29.2235 40.4177 23.8687 40.4177H22.1857C14.0278 40.4177 3.85945 40.0242 2.16056 39.7945C1.91039 39.7945 1.56924 39.6387 1.56924 39.3351C1.58269 39.2331 1.62655 39.1376 1.69511 39.0609C1.76368 38.9842 1.85375 38.93 1.9536 38.9053L2.33227 38.7938C9.37802 36.7538 15.3253 33.0979 20.9473 28.9154" fill="#00ADEE"/>
<path d="M55.5142 24.2952L56.6116 23.1967L53.5561 20.1424C53.4086 20.0071 53.2145 19.934 53.0144 19.9384C52.8143 19.9427 52.6236 20.0241 52.482 20.1657C52.3405 20.3072 52.2591 20.4979 52.2547 20.698C52.2504 20.8981 52.3235 21.0922 52.4587 21.2397L55.5142 24.2952Z" fill="white"/>
<path d="M58.8006 25.3846L62.9751 21.2022C63.0514 21.1326 63.1123 21.0479 63.154 20.9534C63.1957 20.8589 63.2173 20.7568 63.2173 20.6535C63.2173 20.5502 63.1957 20.4481 63.154 20.3536C63.1123 20.2592 63.0514 20.1744 62.9751 20.1048C62.8282 19.9619 62.6313 19.882 62.4264 19.882C62.2215 19.882 62.0246 19.9619 61.8777 20.1048L57.7021 24.2873L56.6048 25.3846L52.4883 29.5011C52.4131 29.5706 52.3531 29.6549 52.312 29.7488C52.271 29.8426 52.2498 29.9439 52.2498 30.0463C52.2498 30.1487 52.271 30.2501 52.312 30.3439C52.3531 30.4377 52.4131 30.5221 52.4883 30.5916C52.5578 30.6682 52.6426 30.7295 52.7372 30.7714C52.8318 30.8133 52.9341 30.835 53.0376 30.835C53.141 30.835 53.2433 30.8133 53.3379 30.7714C53.4325 30.7295 53.5173 30.6682 53.5868 30.5916L57.7033 26.4831L61.8481 30.628C61.9949 30.7711 62.1918 30.8513 62.3968 30.8513C62.6018 30.8513 62.7987 30.7711 62.9455 30.628C63.0218 30.5584 63.0828 30.4737 63.1245 30.3792C63.1662 30.2847 63.1877 30.1826 63.1877 30.0793C63.1877 29.976 63.1662 29.8739 63.1245 29.7794C63.0828 29.6849 63.0218 29.6002 62.9455 29.5306L58.8006 25.3846Z" fill="white"/>
<path d="M80.4632 19.4146C80.5951 19.8615 80.7873 20.2879 81.034 20.6837C81.2637 21.0396 81.5753 21.4842 81.9688 22.0107C82.3668 22.5145 82.7363 23.0421 83.0741 23.5913C83.3879 24.1167 83.637 24.6796 83.8155 25.2663C84.0293 26.0086 84.1316 26.7785 84.1191 27.5509C84.1403 28.6138 83.8848 29.664 83.3777 30.5984C82.9323 31.4157 82.2565 32.084 81.4343 32.5202C80.5809 32.9563 79.6339 33.1777 78.6756 33.165C77.7242 33.18 76.7839 32.958 75.9396 32.5191C75.1263 32.0855 74.4581 31.4229 74.0179 30.6132C73.5277 29.674 73.2877 28.6245 73.3208 27.5657C73.3299 26.8151 73.4231 26.0692 73.6028 25.3403L76.5696 25.4449C76.4316 26.0658 76.3618 26.6999 76.3615 27.3359C76.3173 28.1515 76.5357 28.9598 76.9847 29.6421C77.1778 29.9182 77.4374 30.1411 77.7396 30.2901C78.0417 30.4392 78.3765 30.5097 78.7131 30.4949C79.0342 30.5112 79.3547 30.4527 79.6493 30.3241C79.9439 30.1954 80.2046 30.0001 80.4109 29.7535C80.8658 29.1042 81.0909 28.3207 81.0488 27.5281C81.0667 26.8449 80.9245 26.1669 80.6338 25.5484C80.2722 24.8652 79.8477 24.2173 79.3659 23.6129C78.9503 23.0889 78.5686 22.5389 78.223 21.9664C77.8956 21.4176 77.646 20.8259 77.4816 20.2083C77.2755 19.4199 77.1904 18.6047 77.2292 17.7908H80.2483C80.2415 18.34 80.3165 18.887 80.47 19.4146" fill="white"/>
<path d="M88.7621 32.5338C87.9613 32.1525 87.2906 31.5438 86.8335 30.7838C86.3831 30.0126 86.1522 29.1329 86.166 28.24C86.162 27.8158 86.2093 27.3928 86.307 26.98L89.2738 27.0983C89.2147 27.3786 89.1872 27.6647 89.1919 27.9511C89.1705 28.3071 89.2206 28.6637 89.3391 29C89.4577 29.3363 89.6423 29.6455 89.8822 29.9093C90.1208 30.1532 90.4074 30.345 90.7239 30.4726C91.0404 30.6002 91.3799 30.6609 91.7209 30.6507C92.3831 30.681 93.0306 30.4494 93.5233 30.006C93.7514 29.7849 93.9295 29.5176 94.0459 29.2221C94.1622 28.9265 94.2139 28.6095 94.1976 28.2923C94.2152 27.9905 94.1674 27.6885 94.0575 27.4068C93.9476 27.1252 93.7782 26.8706 93.5608 26.6605C93.0571 26.2473 92.4155 26.0405 91.7653 26.0817H90.9716V23.5925H91.9722C92.5033 23.622 93.0275 23.4674 93.4562 23.1535C93.6301 23.0057 93.7675 22.8197 93.8576 22.61C93.9477 22.4003 93.9882 22.1726 93.9759 21.9447C93.9801 21.7086 93.9331 21.4744 93.8383 21.2581C93.7435 21.0418 93.6031 20.8486 93.4267 20.6916C93.0163 20.3331 92.4887 20.1376 91.9438 20.1424L92.0996 17.6657C92.9902 17.6455 93.8734 17.8307 94.6809 18.2069C95.3841 18.5271 95.9808 19.0421 96.4003 19.6909C96.8131 20.3448 97.0257 21.1055 97.0087 21.8788C97.0183 22.5471 96.841 23.2048 96.4969 23.7778C96.1387 24.3464 95.5986 24.7785 94.9618 25.0003C95.6565 25.2222 96.2451 25.6922 96.6152 26.3205C97.0348 27.0028 97.2486 27.7897 97.2315 28.5902C97.2457 29.425 97.0191 30.2461 96.5788 30.9555C96.1122 31.6751 95.4476 32.2445 94.665 32.5952C93.7351 33.0199 92.7201 33.2253 91.6982 33.1957C90.6738 33.2225 89.6576 33.0066 88.7325 32.5657" fill="white"/>
<path d="M106.59 19.4146C106.72 19.8613 106.909 20.2882 107.154 20.6836C107.384 21.0396 107.696 21.4842 108.089 22.0107C108.487 22.5144 108.857 23.0421 109.194 23.5913C109.512 24.1144 109.761 24.6784 109.936 25.2663C110.152 26.0078 110.255 26.7787 110.239 27.5509C110.26 28.6138 110.005 29.664 109.498 30.5984C109.05 31.4158 108.372 32.084 107.548 32.5202C106.695 32.9571 105.747 33.1784 104.789 33.1649C103.837 33.1803 102.896 32.9583 102.052 32.519C101.241 32.0852 100.576 31.4224 100.139 30.6132C99.6466 29.6747 99.4038 28.6252 99.4342 27.5656C99.4421 26.8151 99.5365 26.0692 99.7162 25.3403L102.682 25.4437C102.55 26.0659 102.483 26.7 102.482 27.3359C102.442 28.1408 102.658 28.9377 103.098 29.6125C103.293 29.8881 103.554 30.1106 103.857 30.2595C104.16 30.4085 104.496 30.4793 104.833 30.4654C105.153 30.4823 105.473 30.424 105.767 30.2953C106.06 30.1665 106.32 29.9709 106.524 29.7239C106.986 29.0769 107.21 28.2911 107.161 27.4986C107.183 26.815 107.04 26.1362 106.746 25.5188C106.384 24.8356 105.96 24.1877 105.478 23.5834C105.065 23.0575 104.684 22.5077 104.336 21.9368C104.015 21.3849 103.766 20.7941 103.595 20.1788C103.393 19.3897 103.308 18.5751 103.343 17.7612H106.367C106.362 18.3104 106.437 18.8574 106.591 19.385" fill="white"/>
<path d="M121.379 31.3705C120.557 31.0303 119.672 30.8683 118.783 30.8952H113.769V28.671H115.289C114.331 28.1187 113.542 27.316 113.006 26.3489C112.432 25.331 112.135 24.1801 112.145 23.0114C112.113 21.9717 112.329 20.9394 112.776 20.0002C113.147 19.2497 113.734 18.6243 114.459 18.2058C115.174 17.8115 115.979 17.6097 116.795 17.6202C117.529 17.6137 118.254 17.7842 118.909 18.1171C119.537 18.4149 120.043 18.9207 120.341 19.5488C120.674 18.9324 121.193 18.4366 121.823 18.1319C122.501 17.7874 123.251 17.6118 124.011 17.6202C124.878 17.6058 125.734 17.8154 126.496 18.2286C127.226 18.6205 127.832 19.2085 128.246 19.9263C128.68 20.6996 128.901 21.5752 128.884 22.4621C128.899 23.3299 128.673 24.1848 128.231 24.932C127.804 25.6511 127.182 26.2349 126.437 26.6161C125.638 27.0223 124.752 27.2261 123.856 27.2097C122.958 27.2262 122.07 27.0253 121.267 26.6241C120.528 26.2534 119.903 25.6895 119.458 24.9923C119.016 24.2754 118.789 23.4464 118.805 22.6043V22.1961C118.832 21.6641 118.672 21.1397 118.353 20.7132C118.209 20.5303 118.023 20.3839 117.812 20.2859C117.6 20.1879 117.369 20.1411 117.136 20.1492C116.863 20.1397 116.592 20.1993 116.348 20.3226C116.105 20.4459 115.896 20.6287 115.742 20.8542C115.351 21.5108 115.172 22.2721 115.23 23.0341C115.181 23.7375 115.28 24.4433 115.52 25.1063C115.76 25.7692 116.136 26.3746 116.624 26.8834C117.56 27.7707 118.773 28.3078 120.059 28.4037L120.726 28.4697C122.019 28.5538 123.255 29.0298 124.271 29.8343C124.719 30.2281 125.083 30.7099 125.338 31.2497C125.593 31.7895 125.735 32.376 125.755 32.9728H122.691C122.637 32.6216 122.493 32.2904 122.273 32.011C122.054 31.7316 121.766 31.5134 121.438 31.3774L121.379 31.3705ZM125.369 24.0576C125.764 23.5993 125.968 23.008 125.94 22.4042C125.968 21.7849 125.756 21.1787 125.346 20.7132C125.159 20.5088 124.929 20.3477 124.673 20.2413C124.417 20.1348 124.141 20.0855 123.863 20.0969C123.587 20.0889 123.311 20.1397 123.055 20.2459C122.8 20.3522 122.569 20.5114 122.379 20.7132C122.005 21.1803 121.802 21.7609 121.802 22.3592C121.802 22.9576 122.005 23.5381 122.379 24.0053C122.568 24.2097 122.798 24.3716 123.054 24.4805C123.309 24.5893 123.585 24.6424 123.863 24.6364C124.14 24.6466 124.416 24.5969 124.672 24.4905C124.928 24.3841 125.158 24.2236 125.346 24.02" fill="white"/>
<path d="M133.245 32.535C132.464 32.1496 131.808 31.5502 131.354 30.8065C130.901 30.0416 130.67 29.1661 130.686 28.2775C130.69 27.7135 130.78 27.1529 130.952 26.6161L133.852 26.7344C133.765 27.1495 133.716 27.5713 133.704 27.9966C133.671 28.6652 133.897 29.3208 134.334 29.8274C134.56 30.0584 134.832 30.2387 135.132 30.3564C135.433 30.474 135.755 30.5263 136.078 30.5097C136.404 30.5367 136.733 30.4912 137.04 30.3765C137.347 30.2618 137.625 30.0807 137.853 29.8462C138.082 29.6116 138.257 29.3294 138.364 29.0197C138.471 28.71 138.508 28.3805 138.473 28.0546V22.4337C138.472 21.9992 138.344 21.5745 138.105 21.2115C137.866 20.8486 137.527 20.5632 137.128 20.3903C136.729 20.2185 136.289 20.1673 135.861 20.2431C135.433 20.3189 135.037 20.5183 134.721 20.8167C134.525 21.028 134.374 21.2772 134.277 21.549C134.18 21.8202 134.139 22.1085 134.157 22.3962C134.153 22.6826 134.181 22.9685 134.239 23.2491L131.213 23.3309C131.132 22.8882 131.092 22.4391 131.093 21.9891C131.078 21.1624 131.32 20.3513 131.784 19.667C132.254 18.9885 132.903 18.4542 133.66 18.1239C134.494 17.7583 135.397 17.5764 136.307 17.5906C137.225 17.5755 138.134 17.7736 138.962 18.1694C139.726 18.5351 140.368 19.1146 140.809 19.8376C141.266 20.62 141.498 21.5126 141.477 22.4189V28.0546C141.499 28.9961 141.274 29.9271 140.824 30.7542C140.397 31.5217 139.748 32.1423 138.962 32.535C138.061 32.9759 137.066 33.1921 136.063 33.165C135.086 33.1877 134.118 32.9716 133.245 32.535Z" fill="white"/>
<path d="M146.756 32.519C145.962 32.1159 145.301 31.493 144.851 30.7246C144.402 29.921 144.174 29.0126 144.191 28.0921C144.177 27.1757 144.393 26.2703 144.821 25.4596C145.23 24.7005 145.851 24.0767 146.609 23.6641C147.424 23.2257 148.339 23.0062 149.264 23.0273C149.845 23.0215 150.422 23.1297 150.962 23.3457C151.439 23.5367 151.866 23.8369 152.208 24.2213V22.196C152.214 21.8946 152.15 21.5958 152.021 21.3231C151.892 21.0503 151.703 20.8109 151.467 20.6234C150.961 20.2647 150.358 20.0684 149.738 20.0604C149.118 20.0525 148.51 20.2334 147.995 20.579C147.789 20.7267 147.619 20.92 147.5 21.1439C147.38 21.3677 147.314 21.6161 147.306 21.8697L144.227 21.7662C144.225 20.9768 144.487 20.2092 144.97 19.5852C145.479 18.9224 146.158 18.41 146.935 18.1023C147.813 17.7439 148.754 17.5648 149.702 17.5758C150.669 17.5623 151.628 17.7675 152.505 18.1762C153.304 18.5425 153.985 19.1255 154.47 19.8592C154.958 20.587 155.217 21.4455 155.211 22.3223V27.9807C155.242 28.6809 155.126 29.3798 154.871 30.0326C154.615 30.6853 154.226 31.2774 153.728 31.7708C153.18 32.2593 152.541 32.6345 151.847 32.8749C151.153 33.1154 150.419 33.2162 149.686 33.1718C148.659 33.2016 147.641 32.9803 146.72 32.527L146.756 32.519ZM151.481 29.9605C151.707 29.7499 151.886 29.4934 152.005 29.2083C152.124 28.9231 152.18 28.6158 152.17 28.3071V27.9204C152.179 27.6086 152.122 27.2984 152.003 27.0099C151.885 26.7214 151.707 26.461 151.481 26.2454C150.99 25.8109 150.349 25.5825 149.694 25.6075C149.353 25.5869 149.012 25.6362 148.692 25.7524C148.371 25.8685 148.077 26.049 147.829 26.2828C147.581 26.5166 147.383 26.7987 147.247 27.1118C147.112 27.425 147.042 27.7624 147.042 28.1035C147.042 28.4446 147.112 28.7821 147.247 29.0952C147.383 29.4083 147.581 29.6904 147.829 29.9242C148.077 30.158 148.371 30.3385 148.692 30.4547C149.012 30.5708 149.353 30.6201 149.694 30.5995C150.35 30.6243 150.99 30.3955 151.481 29.9605Z" fill="white"/>
<path d="M158.422 29.4635C158.214 28.1741 158.115 26.8693 158.126 25.5631V23.2263C158.098 22.1711 158.335 21.1256 158.815 20.1856C159.243 19.3635 159.903 18.6853 160.714 18.2354C161.559 17.796 162.498 17.5667 163.45 17.5667C164.403 17.5667 165.342 17.796 166.187 18.2354C166.995 18.6818 167.655 19.355 168.086 20.1719C168.566 21.1044 168.802 22.1415 168.775 23.1899V25.5631C168.785 26.8768 168.686 28.1891 168.478 29.4863C168.285 30.6649 168.005 31.8276 167.64 32.9648H164.719C165.422 30.6007 165.776 28.1479 165.772 25.6814V23.3457C165.827 22.5298 165.61 21.7187 165.157 21.0384C164.953 20.7839 164.695 20.5784 164.402 20.437C164.108 20.2957 163.787 20.2222 163.461 20.222C163.136 20.222 162.814 20.2954 162.521 20.4367C162.227 20.5781 161.97 20.7837 161.767 21.0384C161.315 21.7277 161.099 22.5449 161.152 23.3673V25.6814C161.147 28.1474 161.502 30.601 162.205 32.9648H159.238C158.877 31.8186 158.597 30.6487 158.4 29.4635" fill="white"/>
<path d="M178.373 19.4146C178.502 19.8615 178.692 20.2879 178.937 20.6837C179.166 21.0396 179.478 21.4842 179.871 22.0107C180.27 22.5145 180.639 23.0421 180.975 23.5913C181.673 24.7924 182.027 26.1621 181.999 27.5509C182.02 28.6138 181.765 29.6641 181.257 30.5984C180.814 31.417 180.138 32.0858 179.314 32.5202C178.461 32.9571 177.514 33.1784 176.555 33.165C175.604 33.1801 174.664 32.9581 173.819 32.5191C173.007 32.0853 172.339 31.4227 171.899 30.6132C171.408 29.6742 171.168 28.6245 171.202 27.5657C171.21 26.8151 171.304 26.0692 171.483 25.3403L174.449 25.4449C174.315 26.0664 174.246 26.7001 174.242 27.3359C174.198 28.1514 174.416 28.9595 174.864 29.6421C175.058 29.9189 175.319 30.1422 175.623 30.2912C175.926 30.4403 176.262 30.5104 176.6 30.4949C176.92 30.5103 177.239 30.4514 177.532 30.3228C177.826 30.1941 178.085 29.9993 178.291 29.7535C178.749 29.1053 178.974 28.3207 178.929 27.5281C178.95 26.8445 178.808 26.1657 178.514 25.5484C178.152 24.8652 177.727 24.2173 177.246 23.6129C176.83 23.089 176.449 22.539 176.104 21.9664C175.782 21.4145 175.533 20.8237 175.361 20.2083C175.155 19.4199 175.071 18.6047 175.11 17.7908H178.135C178.129 18.34 178.204 18.8872 178.358 19.4146" fill="white"/>
</svg>
